#N canvas 0 22 1280 733 10;
#X obj 390 187 osc~ 440;
#X obj 391 260 dac~;
#X floatatom 390 155 5 0 0 0 - - -, f 5;
#X msg 449 187 0;
#X msg 482 187 1;
#X text 487 171 on;
#X text 449 171 off;
#X text 16 133 Surface Elements in PD;
#X obj 67 160 osc~;
#X obj 138 160 dac~;
#X obj 103 160 *~ 0;
#X text 16 160 Objects;
#X msg 74 186 0;
#X msg 108 186 1;
#X text 16 187 Messages;
#X floatatom 62 214 5 0 0 0 - - -, f 5;
#X text 16 214 Number;
#X obj 212 213 osc~ 440;
#X floatatom 212 187 5 0 0 0 - - -, f 5;
#X obj 212 297 dac~;
#X obj 212 267 *~ 0;
#X text 212 133 Cables;
#X text 212 160 Thin lines carry data;
#X text 212 240 Thick lines carry signal;
#X obj 16 459 +;
#X floatatom 16 436 5 0 0 0 - - -, f 5;
#X floatatom 51 436 5 0 0 0 - - -, f 5;
#X floatatom 16 486 5 0 0 0 - - -, f 5;
#X floatatom 93 435 5 0 0 0 - - -, f 5;
#X floatatom 129 435 5 0 0 0 - - -, f 5;
#X obj 93 457 -;
#X floatatom 93 485 5 0 0 0 - - -, f 5;
#X floatatom 176 435 5 0 0 0 - - -, f 5;
#X floatatom 212 435 5 0 0 0 - - -, f 5;
#X floatatom 176 486 5 0 0 0 - - -, f 5;
#X floatatom 259 435 5 0 0 0 - - -, f 5;
#X floatatom 294 435 5 0 0 0 - - -, f 5;
#X floatatom 259 486 5 0 0 0 - - -, f 5;
#X obj 176 460 *;
#X obj 259 462 /;
#X floatatom 346 434 5 0 0 0 - - -, f 5;
#X floatatom 381 434 5 0 0 0 - - -, f 5;
#X floatatom 346 484 5 0 0 0 - - -, f 5;
#X obj 346 461 pow;
#X text 16 408 Enter data into the inlets from RIGHT to LEFT;
#X msg 438 465 3;
#X obj 438 491 * 3;
#X obj 486 491 * 4;
#X floatatom 486 518 5 0 0 0 - - -, f 5;
#X floatatom 438 519 5 0 0 0 - - -, f 5;
#X msg 486 464 45;
#X obj 438 434 bng 15 250 50 0 empty empty empty 17 7 0 10 -262144
-1 -1;
#X obj 816 434 bng 15 250 50 0 empty empty empty 17 7 0 10 -262144
-1 -1;
#X obj 816 461 trigger bang bang;
#X msg 816 488 3;
#X msg 851 488 5;
#X obj 816 515 * 3;
#X obj 851 515 * 4;
#X floatatom 816 542 5 0 0 0 - - -, f 5;
#X floatatom 851 543 5 0 0 0 - - -, f 5;
#X obj 816 568 +;
#X floatatom 816 595 5 0 0 0 - - -, f 5;
#X text 929 461 An outlet is created with every argument you enter
;
#X obj 524 434 bng 15 250 50 0 empty empty empty 17 7 0 10 -262144
-1 -1;
#X obj 524 466 trigger bang bang;
#X msg 524 488 3;
#X msg 559 488 5;
#X obj 524 515 * 3;
#X obj 559 514 * 4;
#X obj 524 568 +;
#X floatatom 524 595 5 0 0 0 - - -, f 5;
#X obj 576 568 print;
#X obj 640 463 trigger bang bang;
#X msg 640 504 3;
#X msg 731 501 5;
#X obj 640 537 * 3;
#X obj 731 532 * 4;
#X obj 640 566 print right;
#X obj 731 564 print left;
#X obj 640 434 bng 15 250 50 0 empty empty empty 17 7 0 10 -262144
-1 -1;
#X obj 905 695 bng 15 250 50 0 empty empty empty 17 7 0 10 -262144
-1 -1;
#X obj 905 722 expr (4*(5-2))/4;
#X floatatom 905 751 5 0 0 0 - - -, f 5;
#X text 905 676 Larger mathmatical expressions;
#X obj 906 822 expr ($f1*(5-2))/$f2;
#X floatatom 906 796 5 0 0 0 - - -, f 5;
#X floatatom 1023 797 5 0 0 0 - - -, f 5;
#X floatatom 906 850 5 0 0 0 - - -, f 5;
#X text 901 772 Variables: $f1 \, $f2 \, $f3 \, etc.;
#X text 816 408 Triggers shoot data in the correct order RIGHT to LEFT
;
#X text 17 978 If you give "moses" an argument of 10 and give it an
input that is smaller than 10 \, this input comes out of the left outlet.
If the input is 10 or greater \, it is sent to the right outlet.;
#X obj 18 1073 moses 10;
#X floatatom 18 1044 5 0 0 0 - - -, f 5;
#X floatatom 63 1110 5 0 0 0 - - -, f 5;
#X floatatom 18 1111 5 0 0 0 - - -, f 5;
#X obj 110 1071 moses 10;
#X floatatom 110 1042 5 0 0 0 - - -, f 5;
#X floatatom 155 1108 5 0 0 0 - - -, f 5;
#X floatatom 110 1109 5 0 0 0 - - -, f 5;
#X text 397 978 "select" (usually abbreviated to "sel"): Input is a
number \, output is a bang only when the input is the same as the argument.
Any other numbers received as input come out the bottom right outlet.
;
#X obj 397 1074 sel 5;
#X obj 397 1106 bng 15 250 50 0 empty empty empty 17 7 0 10 -262144
-1 -1;
#X floatatom 424 1104 5 0 0 0 - - -, f 5;
#X floatatom 397 1045 5 0 0 0 - - -, f 5;
#X text 16 15 Alexander Pareja 3/25/18;
#X text 501 676 Relational Tests;
#X text 500 700 "==": If the left input is the same as the argument
or the right input \, the output is 1 \, otherwise 0:;
#X obj 501 762 == 3;
#X floatatom 501 786 5 0 0 0 - - -, f 5;
#X floatatom 501 739 5 0 0 0 - - -, f 5;
#X obj 539 760 == 3;
#X floatatom 539 786 5 0 0 0 - - -, f 5;
#X floatatom 539 738 5 0 0 0 - - -, f 5;
#X floatatom 939 491 5 0 0 0 - - -, f 5;
#X floatatom 902 491 5 0 0 0 - - -, f 5;
#X text 502 809 ">=": If the left input is larger than or equal to
the argument or the right input \, the output is 1 \, otherwise 0 ">":
If the left input is larger than the argument or the right input \,
the output is 1 \, otherwise 0 "!=": If the left input is not equal
to the argument or the right input \, the output is 1 \, otherwise
0 "<": If the left input is smaller than the argument or the right
input \, the output is 1 \, otherwise 0 "<=": If the left input is
smaller than or equal to the argument or the right input \, the output
is 1 \, otherwise 0;
#X text 16 676 A quotient with a "remainder" can be achieved in Pd
with "div" and "mod":;
#X floatatom 19 763 5 0 0 0 - - -, f 5;
#X floatatom 63 763 5 0 0 0 - - -, f 5;
#X obj 63 735 mod 7;
#X obj 19 735 div 7;
#X floatatom 19 712 5 0 0 0 - - -, f 5;
#X text 1637 67 .;
#X text 795 978 "Random" creates a random number within a given range.
The lower limit has a default value of 0 \, the upper limit is entered
as an argument (whole numbers only). The upper limit is exclusive \;
i.e. \, if you enter "random 4" \, every time the object receives a
bang as input it will randomly select an output of 0 \, 1 \, 2 \, or
3;
#X obj 817 1084 random 5;
#X obj 796 1085 bng 15 250 50 0 empty empty empty 17 7 0 10 -262144
-1 -1;
#X floatatom 817 1108 5 0 0 0 - - -, f 5;
#X text 110 725 "sin" = Sine "cos" = Cosine "tan" = Tangent "log" =
(natural) Logarithm "abs" = Absolute value "sqrt" = Square root;
#X floatatom 63 713 5 0 0 0 - - -, f 5;
#X obj 390 219 *~ 0;
#X obj 400 1298 bng 15 250 50 0 empty empty empty 17 7 0 10 -262144
-1 -1;
#X floatatom 399 1389 5 0 0 0 - - -, f 5;
#X msg 439 1327 0;
#X obj 399 1357 + 1;
#X obj 400 1326 f;
#X text 17 1245 Another important object in the context of number operations
is the "float" object (abbreviated: "f"). This object is used to store
numbers. When you enter a number into the right input \, it is saved
in the object for later use. If you send a bang to the left inlet \,
the number stored in the object is sent as output;
#X text 388 133 A Simple Example:;
#X text 16 92 Introduction:;
#X text 16 361 Basic Mathematics:;
#X text 16 1208 Float and Counter:;
#X msg 414 5903 sup;
#X obj 17 1338 bng 15 250 50 0 empty empty empty 17 7 0 10 -262144
-1 -1;
#X obj 17 1367 f;
#X floatatom 17 1395 5 0 0 0 - - -, f 5;
#X floatatom 52 1368 5 0 0 0 - - -, f 5;
#X text 17 1421 You can also send a number directly into the left input.
This causes it to be sent as output immediately. The number is also
stored in the object for later use and can be resent using a bang.
;
#X text 400 1245 Often in Pd \, you'll want to use a "counter" that
counts in whole numbers starting from a given input value. Here's an
example:;
#X text 399 1421 Explanation: First you give the "f" object a starting
value of "0". The first time you click on the bang in the upper left
\, the "f" sends a 0 to the "+ 1" object. This object then generates
0 + 1 = 1 This 1 then goes into the right inlet of the "f" object.
The next time you send a bang \, this 1 is sent as output to the "+
1" object \, which in turn generates a 2;
#X text 16 1696 Applications:;
#X text 16 1549 Summary:;
#X text 16 1586 The objects for mathematical operations demonstrate
clearly an important rule in Pd: the inputs for a control object should
always be entered from right to left. To ensure this is the case \,
we often need to employ a "trigger" object \, which sends outputs from
right to left one after the other.;
#X text 394 1586 A "bang" is like a mouse click \, that can be sent
or received.;
#X text 724 1586 The "print" object displays in the Pd main window
outputs generated when running your patch. Outputs sent one after another
in time appear underneath each other in the list \; i.e. the output
at the bottom of the list is the most recent.;
#X text 16 1733 Two frequencies – two volume levels;
#X obj 92 1836 bng 15 250 50 0 empty empty empty 17 7 0 10 -262144
-1 -1;
#X obj 137 1836 bng 15 250 50 0 empty empty empty 17 7 0 10 -262144
-1 -1;
#X msg 60 1876 500;
#X msg 137 1901 0.5;
#X msg 92 1901 1;
#X obj 15 1912 osc~;
#X obj 15 1942 *~;
#X obj 15 1976 dac~;
#X msg 15 1877 440;
#X text 16 1770 If you want to switch between two frequencies - a low
quiet tone and a high loud one - you could use the following patch.
Switch between tones by clicking on their respective bangs:;
#X text 402 1733 An Interval;
#X text 402 1770 To produce a dyad \, you'll need two "osc~" objects.
In the following patch \, moving the values in the number box up and
down will produce a vertical interval (here \, a perfect fifth) at
various pitches:;
#X floatatom 402 1836 5 0 0 0 - - -, f 5;
#X obj 402 1862 * 400;
#X obj 466 1862 * 600;
#X obj 466 1909 osc~;
#X obj 402 1909 osc~;
#X obj 402 1941 *~ 0.5;
#X obj 504 1908 print fourhundred;
#X obj 504 1886 print sixhundred;
#X obj 402 1973 dac~;
#X text 792 1733 Random Melody;
#X text 792 1770 Every bang you send will generate a pitch between
200 and 1000 Hertz – a random melody. Now a few more examples of
mathematical operations:;
#X obj 793 1823 bng 15 250 50 0 empty empty empty 17 7 0 10 -262144
-1 -1;
#X obj 793 1850 random 800;
#X obj 793 1878 + 200;
#X floatatom 793 1906 5 0 0 0 - - -, f 5;
#X obj 793 1933 osc~;
#X obj 793 1961 *~ 0.7;
#X obj 793 1989 dac~;
#X text 16 2026 Rounding;
#X floatatom 17 2051 5 0 0 0 - - -, f 5;
#X obj 17 2077 + 0.5;
#X obj 17 2102 div;
#X floatatom 17 2129 5 0 0 0 - - -, f 5;
#X text 59 2051 number to be rounded (positive values only);
#X text 59 2128 Result;
#X text 348 2026 How long is this score?;
#X text 348 2063 A value that composers need to calculate again and
again: you've written a piece with 324 quarter notes at a tempo of
quarter = 72 How long is the piece in seconds?;
#X floatatom 348 2116 5 0 0 0 - - -, f 5;
#X floatatom 420 2116 5 0 0 0 - - -, f 5;
#X obj 348 2142 expr ($f1/$f2)*60;
#X floatatom 348 2169 5 0 0 0 - - -, f 5;
#X text 730 2026 Counting in a series;
#X text 730 2063 This counter counts only from 0 to 6 \; after the
6 \, it starts again at 0;
#X obj 736 2108 bng 15 250 50 0 empty empty empty 17 7 0 10 -262144
-1 -1;
#X obj 736 2134 f;
#X obj 736 2190 mod 7;
#X obj 736 2162 + 1;
#X floatatom 736 2218 5 0 0 0 - - -, f 5;
#X msg 776 2134 0;
#X text 16 2293 Random without repetitions;
#X text 16 2330 a patch that generates random numbers where the same
number never occurs twice in a row (unlike the normal "random" object)
;
#X obj 17 2394 bng 15 250 50 0 empty empty empty 17 7 0 10 -262144
-1 -1;
#X obj 81 2415 random;
#X obj 82 2447 trigger bang float bang float;
#X floatatom 126 2385 5 0 0 0 - - -, f 5;
#X obj 81 2518 f;
#X obj 136 2545 sel 1;
#X obj 81 2545 sel 0;
#X obj 155 2483 f;
#X obj 155 2514 ==;
#X obj 82 2570 f;
#X floatatom 82 2598 5 0 0 0 - - -, f 5;
#X obj 130 2599 print;
#X obj 541 2434 bng 15 250 50 0 empty empty empty 17 7 0 10 -262144
-1 -1;
#X obj 541 2489 + 200;
#X floatatom 541 2517 5 0 0 0 - - -, f 5;
#X obj 541 2544 osc~;
#X obj 541 2572 *~ 0.7;
#X obj 541 2600 dac~;
#X obj 616 2489 + 200;
#X floatatom 616 2517 5 0 0 0 - - -, f 5;
#X obj 616 2544 osc~;
#X obj 616 2572 *~ 0.7;
#X obj 616 2600 dac~;
#X obj 616 2461 random;
#X floatatom 675 2437 5 0 0 0 - - -, f 5;
#X obj 541 2461 random;
#X floatatom 600 2425 5 0 0 0 - - -, f 5;
#X obj 514 2398 metro;
#X msg 716 2537 1;
#X msg 737 2578 0;
#X floatatom 571 2366 5 0 0 0 - - -, f 5;
#X obj 514 2357 bng 15 250 50 0 empty empty empty 17 7 0 10 -262144
-1 -1;
#X text 514 2330 Create two random melodies that run simultaneously.
;
#X floatatom 414 5925 5 0 0 0 - - -, f 5;
#X text 16 2664 More on trigger:;
#X text 16 2701 The "trigger" object is capable of distributing not
only bangs but also numbers (later we'll learn even more possibilities).
It is usually abbreviated as "t" and instead of typing out the arguments
"bang" and "float" \, you can use just "b" and "f":;
#X floatatom 16 2780 5 0 0 0 - - -, f 5;
#X obj 16 2812 t f f;
#X obj 85 2869 print right;
#X obj 16 2869 print left;
#X floatatom 85 2840 5 0 0 0 - - -, f 5;
#X floatatom 16 2839 5 0 0 0 - - -, f 5;
#X floatatom 175 2781 5 0 0 0 - - -, f 5;
#X obj 244 2870 print right;
#X obj 175 2870 print left;
#X floatatom 175 2840 5 0 0 0 - - -, f 5;
#X obj 175 2813 t f b;
#X obj 244 2847 bng 15 250 50 0 empty empty empty 17 7 0 10 -262144
-1 -1;
#X text 217 2814 The number input results simply in a bang on the right.
;
#X text 596 2664 About series:;
#X text 596 2691 By default \, objects and connections are (currently)
carried out in the sequence (in time) in which they are created:;
#X obj 597 2741 bng 15 250 50 0 empty empty empty 17 7 0 10 -262144
-1 -1;
#X obj 597 2777 symbol peter;
#X obj 684 2777 symbol erwin;
#X obj 597 2811 print;
#X obj 683 2810 print;
#X text 596 2873 Of course \, this cannot be seen and should be avoid
for just that reason!;
#X text 596 2836 If you first connect a bang to "symbol erwin \, "
then it (along with anything attached beneath it) is executed first.
;
#X text 16 2951 Messages:;
#X text 16 2988 In this context \, let's have a look at the "writesf~"
object (an audio object will be introduced here due to the fact that
symbols are usually used in this context \; the object itself will
be further explained in the audio chapter). This object saves sound
as WAV files. It works like this: first we allocate a file in the message
box to which the sound is to be stored in WAV format: "open [file name]".
If \, for example \, the file is to be called "test.wav" \, then you
would enter "open test.wav". Then we use the messages "start" and "stop"
to start and stop the recording.;
#X msg 201 3165 start;
#X msg 202 3186 stop;
#X obj 108 3212 writesf~;
#X obj 64 3166 open;
#X text 420 3087 This did not appear the same as the book. Could not
complete;
#X text 16 3288 Lists:;
#X text 16 3325 The message "open test.wav" is a connection between
two symbols (because it consists of two words separated by a space).
This sort of succession of two or more symbols (or numbers) is called
a "list". The "pack" object can create a list from several "elements".
For the arguments \, enter indications that specify what kind of elements
the list should contain. A number \, as with "trigger" \, is expressed
with "float"* (or "f") \, a symbol with "symbol" (or "s"). If you want
to create a list that contains the messages "hello" and "43" \, use
the "pack" object as shown:;
#X msg 16 3467 hello;
#X msg 65 3467 43;
#X obj 16 3494 pack s f;
#X obj 16 3518 print;
#X text 400 3325 Once again: only when the leftmost inlet receives
input is an (accurate) output generated. (If you click on "hello" first
without having entered the right input for "pack" \, only "list hello
0" will result.) The output for the "pack" object can at this point
only be seen with the "print" object. This then displays: "list hello
43". The elements of this list can \, however \, also be revealed using
the inverse object (Pd has a lot of inverse objects) "unpack" \, which
works according to the same principle as "pack" \, except that what
appears here as output is the input for the "pack" object.;
#X msg 400 3482 hello;
#X msg 453 3482 43;
#X obj 400 3509 pack s f;
#X obj 400 3535 unpack s f;
#X obj 468 3563 print right;
#X obj 400 3563 print left;
#X text 400 3590 "print" now displays "43" and "symbol hello". Everything
that is not a number is preceded by an indication (called a "selector")
of its data type.;
#X text 784 3325 Also worthy of note: if you use a symbol anywhere
but in the leftmost input for a "pack" object \, it must appear like
this:;
#X obj 784 3410 pack f s;
#X msg 784 3379 43, f 2;
#X msg 829 3378 symbol hello;
#X obj 784 3439 print;
#X msg 732 2476 0;
#X text 764 2475 stop metro;
#X text 744 2538 on;
#X text 763 2579 off;
#X text 16 3742 Let's take a closer look at message boxes: Variables
can be integrated in a message box's contents. This is done in a similar
fashion as with "expr" \, but not quite the same: first \, the variables
are called simply "\$1 \, \$2" \, etc. If you enter a number as input
for the message "number \$1" \, the output from the message box will
be the complete expression with this number.;
#X text 784 3468 One problem with "pack s s": the first input is the
only one that doesn't have to be specifically labeled as a symbol.
The second symbol must either be preceded by the word "symbol" in the
message box or the message has to be converted using a "symbol" object:
;
#X msg 786 3547 hello;
#X msg 831 3547 symbol alex;
#X obj 786 3572 pack s s;
#X obj 786 3597 print;
#X msg 941 3549 hello;
#X obj 941 3638 print;
#X obj 941 3610 pack s s;
#X msg 986 3550 symbol;
#X msg 986 3579 alex;
#X text 16 3705 Messages with variables;
#X floatatom 16 3847 5 0 0 0 - - -, f 5;
#X msg 16 3871 number \$1;
#X obj 16 3896 print;
#X text 400 3742 The use of several variables - e.g. \, "number \$1
\$2" - does not create a corresponding number of inlets (as it does
with "expr") \, but instead there remains just one inlet. You need
to enter a list of numbers into this:;
#X msg 400 3808 42 666 187 420;
#X msg 400 3837 number \$1 \$2 \$3;
#X obj 400 3866 print;
#X text 784 3742 Symbols must be identified as such;
#X msg 784 3769 symbol alex;
#X msg 784 3796 name \$1;
#X obj 784 3824 print;
#X msg 879 3769 number 420;
#X msg 879 3799 blaze it \$1;
#X obj 879 3829 print;
#X text 16 3942 Messages: Set;
#X text 16 3969 You can also completely redefine a message box's contents
by preceding them with the symbol "set":;
#X msg 19 4010 set alex;
#X msg 19 4037 alex, f 7;
#X text 400 3969 This changes the contents of a message box in execute
mode (cf. the last point in 2.1.3). Using a variable could \, for example
\, turn the output of a number box into a message:;
#X floatatom 400 4022 7 0 0 0 - - -, f 7;
#X msg 400 4049 set \$1;
#X msg 400 4078 187;
#X text 16 4139 Makefilename:;
#X text 16 4166 Ordinarily it is not possible to include a variable
without a space to separate it. The "makefilename" object \, however
\, makes this possible. Variables that can be included in arguments
are "%d" for digits and "%s" for symbols:;
#X msg 16 4232 43;
#X obj 16 4260 makefilename hello%d;
#X obj 16 4288 print;
#X msg 184 4232 symbol le;
#X obj 184 4260 makefilename a%sx;
#X obj 184 4289 print;
#X text 398 4139 Openpanel:;
#X text 398 4166 The object "readsf~”" plays an existing sound file
\, e.g. \, one that is saved on the hard disk. It needs the message
"open [name of sound file]". "Name of sound file" refers to the place
where the file is stored on a data storage device. If you want to use
"readsf~" in a patch that is saved in the directory c:/Pd/Pd-patches/
to play a sound file named "hallo.wav" that is also saved in the same
directory \, you only have to enter "open hallo.wav". If "hallo.wav"
is saved in the directory c:/Pd/ \, however \, you have to enter: "../hallo.wav"
or if it's saved in c:/Pd/Pd-patches/soundfiles/ \, then "/soundfiles/hallo.wav".
If it is in c:/soundfiles/ : "open ../../soundfiles/hallo.wav". Or
if it is on another drive \, e.g. \, d:/soundfiles \, then you have
to enter "open d:/soundfiles/hallo.wav". These sometimes complicated
directory path names can be more easily expressed using "openpanel".
When it receives a bang \, it opens a window with the available contents
for all of a computer's drives. When you double-click on a file \,
"openpanel" enters the entire path for the file (as a symbol) in Pd:
;
#X obj 782 4279 openpanel;
#X obj 782 4310 print;
#X obj 782 4253 bng 15 250 50 0 empty empty empty 17 7 0 10 -262144
-1 -1;
#X text 858 4139 Simple data storage:;
#X text 858 4166 As already explained with the "float" object (2.2.1.1.5)
\, data can be saved within a patch with the objects "float" \, "symbol"
\, and "lister" (but it's lost when you close the patch). "float" and
"lister" are usually abbreviated to "f" and "l". The right inlet receives
a number \, a symbol \, or a list that is to be stored in the object.
This stored data is sent as output when the object receives a bang
in the left inlet. A number \, symbol \, or list can also be sent directly
into the left inlet \; they are then immediately sent out as output
(and are also saved in the object itself).;
#X text 16 4476 Route:;
#X text 16 4513 An object that can be used to sort various types of
data is "route". It can also allocate the data type (number \, symbol
\, list \, bang).;
#X obj 39 4578 bng 15 250 50 0 empty empty empty 17 7 0 10 -262144
-1 -1;
#X msg 65 4578 89;
#X msg 102 4578 symbol alex;
#X msg 187 4578 list hello 43 now;
#X msg 308 4578 unspecified;
#X obj 38 4621 route bang float symbol list;
#X obj 38 4659 print a;
#X obj 95 4659 print b;
#X obj 152 4659 print c;
#X obj 208 4659 print d;
#X obj 264 4659 print e;
#X text 16 4696 (Everything that cannot be allocated is sent out the
right outlet.);
#X text 400 4513 ... as well as order lists according to names you
have defined:;
#X msg 400 4563 alex hello;
#X msg 474 4563 andrew 45 now;
#X msg 563 4564 something else;
#X obj 400 4603 route alex andrew;
#X obj 400 4631 print a;
#X obj 457 4631 print b;
#X obj 514 4631 print c;
#X msg 669 4564 22 777;
#X msg 726 4566 34 now go;
#X msg 798 4564 something else;
#X obj 669 4604 route 22 34;
#X obj 669 4644 print a;
#X obj 719 4644 print b;
#X obj 771 4644 print c;
#X text 943 4579 Numbers and symbols cannot be combined here. For example
\, "route 22 dieter" will not work., f 23;
#X text 16 4773 Demultiplex:;
#X text 16 4800 "route" distributes an input to various outputs according
to prefix. "demultiplex" (or "demux" \, both in Pd-extended version)
distributes an input to various outputs according to the input of another
inlet. First "demux" receives the numbers of the outlets as an argument
\, starting with 0: "demux 0 1 2 3". In this example \, there are two
inlets ("demux" always has only two inlets) and four outlets (one for
each of the four arguments). Enter a number in the right inlet that
corresponds to the number of an outlet. Now whatever you enter (number
\, symbol \, or list) in the left inlet comes out the third outlet:
;
#X msg 17 4957 hello alex;
#X obj 17 4987 demux 0 1 2 3;
#X floatatom 92 4957 5 0 0 0 - - -, f 5;
#X obj 17 5020 print a;
#X obj 73 5020 print b;
#X obj 129 5020 print c;
#X obj 185 5020 print d;
#X text 402 4773 Spigot:;
#X text 402 4800 Another important object is "spigot". Depending on
whether its right input is a 0 or a 1 \, "spigot" either sends an input
through or not – like a gate that is either open or closed.;
#X obj 402 4892 spigot;
#X floatatom 402 4866 5 0 0 0 - - -, f 5;
#X msg 441 4866 1;
#X floatatom 402 4918 5 0 0 0 - - -, f 5;
#X obj 475 4893 spigot;
#X floatatom 475 4866 5 0 0 0 - - -, f 5;
#X floatatom 475 4920 5 0 0 0 - - -, f 5;
#X msg 513 4866 0;
#X text 778 4773 Toggle:;
#X text 778 4800 As you've seen with "spigot" \, "==" \, and other
relational tests \, 0 and 1 occur frequently in Pd. Due to this frequency
– similar to "bang" for a mouse click – there is a graphic object
for changing between 0 and 1 called "toggle" (Put Toggle or Shift-Ctrl-T).
;
#X obj 811 4901 tgl 15 0 empty empty empty 17 7 0 10 -262144 -1 -1
0 1;
#X obj 778 4926 spigot;
#X floatatom 778 4879 5 0 0 0 - - -, f 5;
#X floatatom 778 4955 5 0 0 0 - - -, f 5;
#X obj 778 5035 tgl 15 0 empty empty empty 17 7 0 10 -262144 -1 -1
0 1;
#X obj 820 5036 tgl 15 0 empty empty empty 17 7 0 10 -262144 -1 -1
0 1;
#X floatatom 778 5062 5 0 0 0 - - -, f 5;
#X floatatom 820 5062 5 0 0 0 - - -, f 5;
#X floatatom 910 5035 5 0 0 0 - - -, f 5;
#X floatatom 952 5035 5 0 0 0 - - -, f 5;
#X obj 910 5066 tgl 15 0 empty empty empty 17 7 0 10 -262144 -1 -1
0 1;
#X obj 952 5066 tgl 15 0 empty empty empty 17 7 0 10 -262144 -1 -1
0 1;
#X text 778 4982 Toggle looks like an on/off switch and can often be
thought of as such. But you should always remember that the computer
always interprets it as simply a change between 0 and 1;
#X text 778 5098 By attaching a toggle to a "spigot" you can more clearly
see if the "gate" is open or closed. Or to see if a relational test
delivers a positive or ne;
#X text 16 5210 Applications:;
#X text 16 5237 Using lists with pitches and dynamics;
#X text 16 5274 Using a list to assign pitches to an oscillator coupled
with dynamics:;
#X msg 16 5315 440 0.6;
#X msg 77 5315 300 0.3;
#X msg 138 5315 1000 0.8;
#X obj 16 5354 unpack f f;
#X floatatom 16 5379 5 0 0 0 - - -, f 5;
#X obj 16 5406 osc~;
#X obj 16 5432 *~;
#X obj 14 5467 dac~;
#X floatatom 63 5381 5 0 0 0 - - -, f 5;
#X obj 110 5408 tgl 15 0 empty empty empty 17 7 0 10 -262144 -1 -1
0 1;
#X text 412 5237 On/off switch;
#X text 412 5274 In the first example \, we saw that a tone could be
turned on and off using "1" and "0". You could use a toggle for this
as shown:;
#X obj 413 5358 osc~ 440;
#X obj 414 5465 dac~;
#X floatatom 413 5326 5 0 0 0 - - -, f 5;
#X obj 413 5424 *~ 0;
#X obj 434 5383 tgl 15 0 empty empty empty 17 7 0 10 -262144 -1 -1
0 1;
#X text 449 5382 on/off;
#X connect 0 0 129 0;
#X connect 2 0 0 0;
#X connect 3 0 129 1;
#X connect 4 0 129 1;
#X connect 18 0 17 0;
#X connect 20 0 19 0;
#X connect 20 0 19 1;
#X connect 24 0 27 0;
#X connect 25 0 24 0;
#X connect 26 0 24 1;
#X connect 28 0 30 0;
#X connect 29 0 30 1;
#X connect 30 0 31 0;
#X connect 32 0 38 0;
#X connect 33 0 38 1;
#X connect 35 0 39 0;
#X connect 36 0 39 1;
#X connect 38 0 34 0;
#X connect 39 0 37 0;
#X connect 40 0 43 0;
#X connect 41 0 43 1;
#X connect 43 0 42 0;
#X connect 45 0 46 0;
#X connect 46 0 49 0;
#X connect 47 0 48 0;
#X connect 50 0 47 0;
#X connect 51 0 45 0;
#X connect 51 0 50 0;
#X connect 52 0 53 0;
#X connect 53 0 114 0;
#X connect 53 1 113 0;
#X connect 56 0 58 0;
#X connect 57 0 59 0;
#X connect 58 0 60 0;
#X connect 59 0 60 1;
#X connect 60 0 61 0;
#X connect 63 0 64 0;
#X connect 64 0 65 0;
#X connect 64 1 66 0;
#X connect 65 0 67 0;
#X connect 66 0 68 0;
#X connect 67 0 69 0;
#X connect 68 0 69 1;
#X connect 68 0 71 0;
#X connect 69 0 70 0;
#X connect 72 0 73 0;
#X connect 72 0 74 0;
#X connect 73 0 75 0;
#X connect 74 0 76 0;
#X connect 75 0 77 0;
#X connect 76 0 78 0;
#X connect 79 0 72 0;
#X connect 80 0 81 0;
#X connect 81 0 82 0;
#X connect 84 0 87 0;
#X connect 85 0 84 0;
#X connect 86 0 84 1;
#X connect 91 0 94 0;
#X connect 91 1 93 0;
#X connect 92 0 91 0;
#X connect 95 0 98 0;
#X connect 95 1 97 0;
#X connect 96 0 95 0;
#X connect 100 0 101 0;
#X connect 100 1 102 0;
#X connect 103 0 100 0;
#X connect 107 0 108 0;
#X connect 109 0 107 0;
#X connect 110 0 111 0;
#X connect 112 0 110 0;
#X connect 113 0 57 0;
#X connect 114 0 56 0;
#X connect 119 0 118 0;
#X connect 120 0 117 0;
#X connect 121 0 120 0;
#X connect 124 0 126 0;
#X connect 125 0 124 0;
#X connect 128 0 119 0;
#X connect 129 0 1 0;
#X connect 129 0 1 1;
#X connect 130 0 134 0;
#X connect 132 0 134 1;
#X connect 133 0 131 0;
#X connect 133 0 134 1;
#X connect 134 0 133 0;
#X connect 140 0 240 0;
#X connect 141 0 142 0;
#X connect 142 0 143 0;
#X connect 144 0 142 1;
#X connect 154 0 162 0;
#X connect 154 0 158 0;
#X connect 155 0 156 0;
#X connect 155 0 157 0;
#X connect 156 0 159 0;
#X connect 157 0 160 1;
#X connect 158 0 160 1;
#X connect 159 0 160 0;
#X connect 162 0 159 0;
#X connect 166 0 167 0;
#X connect 166 0 168 0;
#X connect 167 0 170 0;
#X connect 167 0 172 0;
#X connect 168 0 173 0;
#X connect 168 0 169 0;
#X connect 169 0 171 0;
#X connect 170 0 171 0;
#X connect 177 0 178 0;
#X connect 178 0 179 0;
#X connect 179 0 180 0;
#X connect 180 0 181 0;
#X connect 181 0 182 0;
#X connect 185 0 186 0;
#X connect 186 0 187 0;
#X connect 187 0 188 0;
#X connect 193 0 195 0;
#X connect 194 0 195 1;
#X connect 195 0 196 0;
#X connect 199 0 200 0;
#X connect 200 0 202 0;
#X connect 201 0 203 0;
#X connect 202 0 201 0;
#X connect 202 0 200 1;
#X connect 204 0 200 1;
#X connect 207 0 208 0;
#X connect 208 0 209 0;
#X connect 209 0 211 0;
#X connect 209 1 214 1;
#X connect 209 2 214 0;
#X connect 209 3 215 1;
#X connect 209 3 216 1;
#X connect 210 0 208 1;
#X connect 210 0 214 1;
#X connect 211 0 213 0;
#X connect 211 0 212 0;
#X connect 212 0 208 0;
#X connect 213 0 216 0;
#X connect 214 0 215 0;
#X connect 215 0 211 1;
#X connect 216 0 217 0;
#X connect 216 0 218 0;
#X connect 219 0 230 0;
#X connect 219 0 232 0;
#X connect 220 0 221 0;
#X connect 221 0 222 0;
#X connect 222 0 223 0;
#X connect 223 0 224 0;
#X connect 223 0 224 1;
#X connect 223 0 229 1;
#X connect 225 0 226 0;
#X connect 226 0 227 0;
#X connect 227 0 228 0;
#X connect 228 0 224 0;
#X connect 228 0 224 1;
#X connect 228 0 229 1;
#X connect 230 0 225 0;
#X connect 231 0 230 1;
#X connect 232 0 220 0;
#X connect 233 0 232 1;
#X connect 234 0 219 0;
#X connect 235 0 223 1;
#X connect 235 0 228 1;
#X connect 236 0 223 1;
#X connect 236 0 228 1;
#X connect 237 0 234 1;
#X connect 238 0 234 0;
#X connect 243 0 244 0;
#X connect 244 0 248 0;
#X connect 244 1 247 0;
#X connect 247 0 245 0;
#X connect 248 0 246 0;
#X connect 249 0 253 0;
#X connect 252 0 251 0;
#X connect 253 0 252 0;
#X connect 253 1 254 0;
#X connect 254 0 250 0;
#X connect 258 0 259 0;
#X connect 258 0 260 0;
#X connect 259 0 261 0;
#X connect 260 0 262 0;
#X connect 267 0 269 0;
#X connect 268 0 269 0;
#X connect 274 0 276 0;
#X connect 275 0 276 1;
#X connect 276 0 277 0;
#X connect 279 0 281 0;
#X connect 280 0 281 1;
#X connect 281 0 282 0;
#X connect 282 0 284 0;
#X connect 282 1 283 0;
#X connect 287 0 290 0;
#X connect 288 0 287 0;
#X connect 289 0 287 1;
#X connect 291 0 230 1;
#X connect 291 0 232 1;
#X connect 291 0 234 1;
#X connect 297 0 299 0;
#X connect 298 0 299 1;
#X connect 299 0 300 0;
#X connect 301 0 303 0;
#X connect 303 0 302 0;
#X connect 304 0 305 0;
#X connect 305 0 303 1;
#X connect 307 0 308 0;
#X connect 308 0 309 0;
#X connect 311 0 312 0;
#X connect 312 0 313 0;
#X connect 315 0 316 0;
#X connect 316 0 317 0;
#X connect 318 0 319 0;
#X connect 319 0 320 0;
#X connect 323 0 324 0;
#X connect 326 0 327 0;
#X connect 327 0 328 0;
#X connect 331 0 332 0;
#X connect 332 0 333 0;
#X connect 334 0 335 0;
#X connect 335 0 336 0;
#X connect 346 0 351 0;
#X connect 347 0 351 0;
#X connect 348 0 351 0;
#X connect 349 0 351 0;
#X connect 350 0 351 0;
#X connect 351 0 352 0;
#X connect 351 1 353 0;
#X connect 351 2 354 0;
#X connect 351 3 355 0;
#X connect 351 4 356 0;
#X connect 359 0 362 0;
#X connect 360 0 362 0;
#X connect 361 0 362 0;
#X connect 362 0 363 0;
#X connect 362 1 364 0;
#X connect 362 2 365 0;
#X connect 366 0 369 0;
#X connect 367 0 369 0;
#X connect 368 0 369 0;
#X connect 369 0 370 0;
#X connect 369 1 371 0;
#X connect 369 2 372 0;
#X connect 376 0 377 0;
#X connect 377 0 379 0;
#X connect 377 1 380 0;
#X connect 377 2 381 0;
#X connect 377 3 382 0;
#X connect 378 0 377 1;
#X connect 385 0 388 0;
#X connect 386 0 385 0;
#X connect 387 0 385 1;
#X connect 389 0 391 0;
#X connect 390 0 389 0;
#X connect 392 0 389 1;
#X connect 395 0 396 1;
#X connect 396 0 398 0;
#X connect 397 0 396 0;
#X connect 399 0 401 0;
#X connect 400 0 402 0;
#X connect 403 0 405 0;
#X connect 404 0 406 0;
#X connect 412 0 415 0;
#X connect 413 0 415 0;
#X connect 414 0 415 0;
#X connect 415 0 416 0;
#X connect 415 1 420 0;
#X connect 416 0 417 0;
#X connect 417 0 418 0;
#X connect 418 0 419 0;
#X connect 418 0 419 1;
#X connect 420 0 418 1;
#X connect 421 0 418 1;
#X connect 424 0 427 0;
#X connect 426 0 424 0;
#X connect 427 0 425 0;
#X connect 427 0 425 1;
#X connect 428 0 427 1;
